{
    "asset" : {
        "generator" : "Khronos glTF Blender I/O v0.9.36",
        "version" : "2.0"
    },
    "scene" : 0,
    "scenes" : [
        {
            "name" : "Scene",
            "nodes" : [
                0
            ]
        }
    ],
    "nodes" : [
        {
            "mesh" : 0,
            "name" : "Asset 4.004",
            "rotation" : [
                0.7071068286895752,
                0,
                0,
                0.7071067094802856
            ],
            "scale" : [
                2,
                2,
                2
            ]
        }
    ],
    "materials" : [
        {
            "doubleSided" : true,
            "name" : "Material.004",
            "normalTexture" : {
                "index" : 0,
                "scale" : 3.1999998092651367,
                "texCoord" : 0
            },
            "pbrMetallicRoughness" : {
                "baseColorTexture" : {
                    "index" : 1,
                    "texCoord" : 0
                },
                "metallicFactor" : 0,
                "metallicRoughnessTexture" : {
                    "index" : 2,
                    "texCoord" : 0
                }
            }
        }
    ],
    "meshes" : [
        {
            "name" : "Asset 4.004",
            "primitives" : [
                {
                    "attributes" : {
                        "POSITION" : 0,
                        "NORMAL" : 1,
                        "TEXCOORD_0" : 2
                    },
                    "indices" : 3,
                    "material" : 0
                }
            ]
        }
    ],
    "textures" : [
        {
            "source" : 0
        },
        {
            "source" : 1
        },
        {
            "source" : 2
        }
    ],
    "images" : [
        {
            "bufferView" : 4,
            "mimeType" : "image/jpeg",
            "name" : "Rock041_1K-JPG_NormalDX"
        },
        {
            "bufferView" : 5,
            "mimeType" : "image/jpeg",
            "name" : "Rock041_1K-JPG_Color"
        },
        {
            "bufferView" : 6,
            "mimeType" : "image/jpeg",
            "name" : "Rock041_1K-JPG_Roughness"
        }
    ],
    "accessors" : [
        {
            "bufferView" : 0,
            "componentType" : 5126,
            "count" : 14535,
            "max" : [
                6.52264928817749,
                6.514819622039795,
                0.9443413615226746
            ],
            "min" : [
                -6.543403625488281,
                -6.444736480712891,
                -0.9443801045417786
            ],
            "type" : "VEC3"
        },
        {
            "bufferView" : 1,
            "componentType" : 5126,
            "count" : 14535,
            "type" : "VEC3"
        },
        {
            "bufferView" : 2,
            "componentType" : 5126,
            "count" : 14535,
            "type" : "VEC2"
        },
        {
            "bufferView" : 3,
            "componentType" : 5123,
            "count" : 23184,
            "type" : "SCALAR"
        }
    ],
    "bufferViews" : [
        {
            "buffer" : 0,
            "byteLength" : 174420,
            "byteOffset" : 0
        },
        {
            "buffer" : 0,
            "byteLength" : 174420,
            "byteOffset" : 174420
        },
        {
            "buffer" : 0,
            "byteLength" : 116280,
            "byteOffset" : 348840
        },
        {
            "buffer" : 0,
            "byteLength" : 46368,
            "byteOffset" : 465120
        },
        {
            "buffer" : 0,
            "byteLength" : 877970,
            "byteOffset" : 511488
        },
        {
            "buffer" : 0,
            "byteLength" : 684195,
            "byteOffset" : 1389460
        },
        {
            "buffer" : 0,
            "byteLength" : 154131,
            "byteOffset" : 2073656
        }
    ],
    "buffers" : [
        {
            "byteLength" : 2227788,
            "uri" : "data:application/octet-stream;base64,"
        }
    ]
}
